<svg id="google-play-download-android-app" xmlns="http://www.w3.org/2000/svg" xmlns:xlink="http://www.w3.org/1999/xlink" width="128.088" height="41.899" viewBox="0 0 128.088 41.899">
  <defs>
    <clipPath id="clip-path">
      <path id="Path_32" data-name="Path 32" d="M481.379,418.421l-5.776-3.334-11.14-6.433c-.619-.357-1.235-.141-1.235.605v26.207c0,.56.44.8.978.491l11.4-6.581,5.775-3.334,5.552-3.2c.651-.376.589-.892.039-1.188S481.379,418.421,481.379,418.421Z" transform="translate(-463.228 -408.486)"/>
    </clipPath>
    <linearGradient id="linear-gradient" x1="1.441" y1="1.519" x2="1.441" y2="1.436" gradientUnits="objectBoundingBox">
      <stop offset="0" stop-color="#257cb0"/>
      <stop offset="0.286" stop-color="#4a93b5"/>
      <stop offset="0.767" stop-color="#78bcbb"/>
      <stop offset="1" stop-color="#89cfbd"/>
    </linearGradient>
    <linearGradient id="linear-gradient-2" x1="1.103" y1="2.982" x2="1.187" y2="2.982" gradientUnits="objectBoundingBox">
      <stop offset="0" stop-color="#52c1ad"/>
      <stop offset="1" stop-color="#dee89a"/>
    </linearGradient>
    <linearGradient id="linear-gradient-3" x1="1.145" y1="1.94" x2="1.145" y2="1.857" gradientUnits="objectBoundingBox">
      <stop offset="0" stop-color="#ec413d"/>
      <stop offset="0.167" stop-color="#da4452"/>
      <stop offset="0.575" stop-color="#b0487a"/>
      <stop offset="0.862" stop-color="#954a92"/>
      <stop offset="1" stop-color="#8a4a9d"/>
    </linearGradient>
    <linearGradient id="linear-gradient-4" x1="0.704" y1="4.18" x2="0.704" y2="4.097" gradientUnits="objectBoundingBox">
      <stop offset="0" stop-color="#f58879"/>
      <stop offset="0.119" stop-color="#f69079"/>
      <stop offset="0.713" stop-color="#fcb877"/>
      <stop offset="1" stop-color="#fec874"/>
    </linearGradient>
  </defs>
  <path id="Path_30" data-name="Path 30" d="M130.948,37.05a5.662,5.662,0,0,1-5.661,5.663H8.522A5.663,5.663,0,0,1,2.86,37.05V6.476A5.663,5.663,0,0,1,8.522.814H125.287a5.662,5.662,0,0,1,5.661,5.662V37.05h0Z" transform="translate(-2.86 -0.814)" fill="none"/>
  <g id="Group_121" data-name="Group 121" transform="translate(9.607 8.508)" clip-path="url(#clip-path)">
    <path id="Path_31" data-name="Path 31" d="M463.24,387.346V415.72l14.308-14.187Z" transform="translate(-463.24 -387.787)" fill="url(#linear-gradient)"/>
  </g>
  <g id="Group_122" data-name="Group 122" transform="translate(9.607 8.508)" clip-path="url(#clip-path)">
    <path id="Path_33" data-name="Path 33" d="M481.391,392.882l-5.776-3.334L463.24,382.4v.1l14.308,14.187Z" transform="translate(-463.24 -382.946)" fill="url(#linear-gradient-2)"/>
  </g>
  <g id="Group_123" data-name="Group 123" transform="translate(9.607 8.508)" clip-path="url(#clip-path)">
    <path id="Path_35" data-name="Path 35" d="M463.24,1081.357v.1l12.375-7.145,5.775-3.335-3.843-3.81Z" transform="translate(-463.24 -1053.424)" fill="url(#linear-gradient-3)"/>
  </g>
  <g id="Group_124" data-name="Group 124" transform="translate(9.607 8.508)" clip-path="url(#clip-path)">
    <path id="Path_37" data-name="Path 37" d="M1152.691,884.566l-3.843,3.811,3.843,3.81,6.6-3.811Z" transform="translate(-1134.54 -874.631)" fill="url(#linear-gradient-4)"/>
  </g>
  <path id="Path_39" data-name="Path 39" d="M1926.243,751.037a3.571,3.571,0,0,1-1.472-.3,2.774,2.774,0,0,1-1.118-.914h-.09a11.1,11.1,0,0,1,.09,1.37v3.4H1922.4V742.634h1.016l.173,1.129h.06a2.9,2.9,0,0,1,1.122-.979,3.408,3.408,0,0,1,1.468-.3,3.05,3.05,0,0,1,2.534,1.122,5.975,5.975,0,0,1-.015,6.306A3.055,3.055,0,0,1,1926.243,751.037Zm-.181-7.491a2.215,2.215,0,0,0-1.829.7,3.605,3.605,0,0,0-.58,2.229v.278a4.13,4.13,0,0,0,.58,2.489,2.2,2.2,0,0,0,1.859.749,1.934,1.934,0,0,0,1.676-.865,4.108,4.108,0,0,0,.606-2.387,3.955,3.955,0,0,0-.606-2.368A1.994,1.994,0,0,0,1926.062,743.545Zm6.5,7.341h-1.25V739.171h1.25Zm7.186,0-.249-1.174h-.06a3.462,3.462,0,0,1-1.231,1.05,3.746,3.746,0,0,1-1.532.275,2.757,2.757,0,0,1-1.924-.632,2.3,2.3,0,0,1-.7-1.8q0-2.5,4-2.62l1.4-.045v-.512a2.09,2.09,0,0,0-.418-1.434,1.717,1.717,0,0,0-1.336-.463,5.445,5.445,0,0,0-2.334.632l-.384-.956a5.874,5.874,0,0,1,1.337-.519,5.784,5.784,0,0,1,1.457-.188,3.145,3.145,0,0,1,2.187.655,2.736,2.736,0,0,1,.711,2.1v5.631h-.926Zm-2.823-.88a2.538,2.538,0,0,0,1.833-.64,2.37,2.37,0,0,0,.666-1.792v-.745l-1.25.052a4.547,4.547,0,0,0-2.149.464,1.4,1.4,0,0,0-.659,1.276,1.285,1.285,0,0,0,.411,1.031A1.7,1.7,0,0,0,1936.924,750.005Zm4.475-7.371h1.34l1.807,4.706a17.991,17.991,0,0,1,.738,2.327h.06q.1-.385.41-1.314t2.044-5.718h1.341l-3.547,9.4a4.686,4.686,0,0,1-1.231,1.977,2.618,2.618,0,0,1-1.727.583,5.05,5.05,0,0,1-1.13-.128v-1a4.37,4.37,0,0,0,.926.09,1.909,1.909,0,0,0,1.837-1.446l.459-1.174Zm-38.308.767a2.811,2.811,0,0,1-.225,4.781,1.214,1.214,0,0,0-.483.847.946.946,0,0,0,.449.742l.622.482a3.005,3.005,0,0,1,1.449,2.417c0,1.622-1.571,3.261-4.539,3.261-2.5,0-3.711-1.191-3.711-2.469a2.483,2.483,0,0,1,1.329-2.106,7.438,7.438,0,0,1,3.3-.794,1.806,1.806,0,0,1-.518-1.172,1.559,1.559,0,0,1,.173-.674c-.191.018-.38.035-.553.035a2.728,2.728,0,0,1-2.864-2.709,3.1,3.1,0,0,1,1.1-2.313,4.707,4.707,0,0,1,3.09-.95h3.555l-1.1.621h-1.07Zm-1.226,7.664a2.692,2.692,0,0,0-.4-.018,6.905,6.905,0,0,0-1.812.277,1.938,1.938,0,0,0-1.484,1.777c0,1.225,1.192,2.106,3.038,2.106,1.656,0,2.537-.8,2.537-1.865C1903.747,752.461,1903.177,752,1901.865,751.065Zm.5-3.28a1.746,1.746,0,0,0,.431-1.26c0-1.242-.742-3.175-2.174-3.175a1.612,1.612,0,0,0-1.208.57,1.994,1.994,0,0,0-.38,1.277c0,1.156.673,3.072,2.158,3.072A1.767,1.767,0,0,0,1902.366,747.785Zm-10.141,3a4.066,4.066,0,0,1-4.2-4.067,4.269,4.269,0,0,1,4.464-4.187,4.028,4.028,0,0,1,4.117,4.066A4.21,4.21,0,0,1,1892.225,750.788Zm2.154-1.4a3.118,3.118,0,0,0,.518-1.914c0-1.517-.724-4.411-2.861-4.411a2.4,2.4,0,0,0-1.55.587,2.607,2.607,0,0,0-.793,2.1c0,1.7.844,4.513,2.93,4.513A2.2,2.2,0,0,0,1894.379,749.393Zm-11.493,1.4a4.067,4.067,0,0,1-4.2-4.067,4.27,4.27,0,0,1,4.464-4.187,4.028,4.028,0,0,1,4.118,4.066A4.21,4.21,0,0,1,1882.885,750.788Zm2.154-1.4a3.123,3.123,0,0,0,.517-1.914c0-1.517-.724-4.411-2.861-4.411a2.4,2.4,0,0,0-1.55.587,2.606,2.606,0,0,0-.793,2.1c0,1.7.844,4.513,2.93,4.513A2.2,2.2,0,0,0,1885.04,749.393Zm-7.675,1.125-2.478.572a18.364,18.364,0,0,1-2.858.294c-4.782,0-6.6-3.517-6.6-6.272,0-3.36,2.581-6.478,7-6.478a9.98,9.98,0,0,1,2.65.364,6.76,6.76,0,0,1,2.287,1.074l-1.439,1.368-.606.138.433-.693a4.952,4.952,0,0,0-3.707-1.628,4.785,4.785,0,0,0-4.8,5.111,6.127,6.127,0,0,0,6.132,6.322,5.159,5.159,0,0,0,2.2-.433v-2.789l-2.615.138,1.385-.746h3.673l-.45.433a.405.405,0,0,0-.174.277c-.018.156-.034.659-.034.832v2.114h0Z" transform="translate(-1826.558 -723.237)" fill="#444b54"/>
  <path id="Path_40" data-name="Path 40" d="M3759.9,731.925c-.572-.052-.692-.156-.692-.832v-9.805c0-.037.006-.076.01-.112.07-.606.243-.71.781-1.022h-2.478l-1.3.624h1.324v10.7c0,.346-.068.4-.467.918h3.067l.641-.38C3760.491,731.976,3760.2,731.96,3759.9,731.925Zm7.049.159c-.188.1-.378.224-.566.31a4.011,4.011,0,0,1-1.671.327,3.676,3.676,0,0,1-2.288-.671,4.454,4.454,0,0,1-1.754-3.63,3.9,3.9,0,0,1,3.94-3.974,3.343,3.343,0,0,1,1.773.482,2.847,2.847,0,0,1,1.2,1.7l-4.042,1.635-1.325.1c.429,2.185,1.909,3.457,3.544,3.457a4.446,4.446,0,0,0,2.1-.6Zm-1.616-5.128c.326-.12.5-.224.5-.464a1.707,1.707,0,0,0-1.7-1.48,2.119,2.119,0,0,0-1.978,2.391c0,.293.034.6.052.913Zm3.277-2.393V725.7h-.138v-1.135h-.376v-.118h.889v.118Zm1.548,1.135v-1.146h-.006l-.35,1.146h-.108l-.353-1.146h0V725.7h-.125v-1.253h.215l.319,1.013h0l.314-1.013h.218V725.7Z" transform="translate(-3677.893 -705.142)" fill="#444b54"/>
  <path id="Path_41" data-name="Path 41" d="M1870.255,408.88h-.861a5.681,5.681,0,0,0-.245-1.006h-1.243a5.191,5.191,0,0,0-.253,1.006h-.81q0-.1.628-1.722a13.49,13.49,0,0,0,.628-1.781h1.017a14.778,14.778,0,0,0,.569,1.755A15.434,15.434,0,0,1,1870.255,408.88Zm-1.243-1.52a15.111,15.111,0,0,1-.46-1.5h-.043q0,.1-.476,1.5Zm4.712,1.52h-.664a6.57,6.57,0,0,0-.74-1.165,6.408,6.408,0,0,1-.882-1.52h-.043a9.509,9.509,0,0,1,.067,1.065q0,.664.038,1.62h-.662q.04-.834.04-1.832,0-.982-.04-1.671h.8a5.05,5.05,0,0,0,.664,1.138,6.691,6.691,0,0,1,.812,1.434h.04a10.144,10.144,0,0,1-.065-1.076q0-.729-.038-1.5h.673q-.038.667-.038,1.671T1873.724,408.88Zm3.9-1.872a1.985,1.985,0,0,1-.49,1.334,1.711,1.711,0,0,1-1.372.57q-.4,0-1.1-.032.035-.812.035-1.832,0-.979-.035-1.671h.471q.116,0,.344-.008c.152-.005.252-.008.3-.008a1.814,1.814,0,0,1,1.408.484A1.674,1.674,0,0,1,1877.623,407.008Zm-.734.116a1.3,1.3,0,0,0-.3-.87,1.143,1.143,0,0,0-.92-.354,2.8,2.8,0,0,0-.318.024q.027.538.027,1.124,0,.643.027,1.275a1.778,1.778,0,0,0,.349.035,1.016,1.016,0,0,0,.857-.359A1.386,1.386,0,0,0,1876.889,407.123Zm4.33,1.757h-.8a5.29,5.29,0,0,0-.479-1.175.627.627,0,0,0-.538-.223l-.3,0q0,.692.024,1.4h-.748q.035-.812.035-1.832,0-.979-.035-1.671h.465q.081,0,.338-.008t.475-.008q1.235,0,1.235.845a.947.947,0,0,1-.7.934v.04a.84.84,0,0,1,.476.423A9.389,9.389,0,0,1,1881.219,408.88Zm-1.009-2.475q0-.535-.689-.535a2.366,2.366,0,0,0-.447.038q.03.417.03,1.087c.1,0,.182.005.25.005Q1880.21,407,1880.21,406.405Zm4.865.659a1.931,1.931,0,0,1-.506,1.369,1.642,1.642,0,0,1-1.251.543,1.58,1.58,0,0,1-1.189-.5,1.757,1.757,0,0,1-.479-1.268,1.932,1.932,0,0,1,.506-1.369,1.641,1.641,0,0,1,1.251-.543,1.583,1.583,0,0,1,1.189.5A1.756,1.756,0,0,1,1885.074,407.064Zm-.742.078a1.389,1.389,0,0,0-.288-.912.886.886,0,0,0-.71-.35.82.82,0,0,0-.667.352,1.407,1.407,0,0,0-.275.891,1.386,1.386,0,0,0,.289.911.885.885,0,0,0,.709.351.819.819,0,0,0,.667-.354A1.407,1.407,0,0,0,1884.332,407.142Zm2.263,1.738h-.761q.035-.834.035-1.832,0-.982-.035-1.671h.761q-.035.678-.035,1.671Q1886.561,408.062,1886.6,408.88Zm3.9-1.872a1.984,1.984,0,0,1-.49,1.334,1.71,1.71,0,0,1-1.372.57q-.4,0-1.1-.032.035-.812.035-1.832,0-.979-.035-1.671h.471q.116,0,.344-.008c.152-.005.252-.008.3-.008a1.814,1.814,0,0,1,1.408.484A1.674,1.674,0,0,1,1890.495,407.008Zm-.734.116a1.3,1.3,0,0,0-.3-.87,1.143,1.143,0,0,0-.92-.354,2.8,2.8,0,0,0-.318.024q.027.538.027,1.124,0,.643.027,1.275a1.779,1.779,0,0,0,.35.035,1.016,1.016,0,0,0,.857-.359A1.386,1.386,0,0,0,1889.76,407.123Zm5.907,1.757h-.861a5.681,5.681,0,0,0-.245-1.006h-1.243a5.2,5.2,0,0,0-.253,1.006h-.809q0-.1.628-1.722a13.511,13.511,0,0,0,.628-1.781h1.017a14.86,14.86,0,0,0,.569,1.755A15.447,15.447,0,0,1,1895.667,408.88Zm-1.243-1.52a15.182,15.182,0,0,1-.46-1.5h-.043q0,.1-.476,1.5Zm4.381-1.065a1.049,1.049,0,0,1-.478.95,2.124,2.124,0,0,1-1.172.307c-.084,0-.144,0-.18-.005q0,.506.03,1.334h-.756q.035-.777.035-1.832,0-.968-.035-1.671h.468q.1,0,.382-.008t.49-.008a1.54,1.54,0,0,1,.864.231A.782.782,0,0,1,1898.805,406.295Zm-.694.148q0-.576-.764-.576a2.166,2.166,0,0,0-.4.04q.03.509.03,1.151c.045,0,.1.005.156.005Q1898.112,407.064,1898.111,406.443Zm3.921-.148a1.049,1.049,0,0,1-.477.95,2.126,2.126,0,0,1-1.172.307c-.084,0-.144,0-.18-.005q0,.506.03,1.334h-.756q.035-.777.035-1.832,0-.968-.035-1.671h.468q.1,0,.382-.008t.49-.008a1.54,1.54,0,0,1,.864.231A.783.783,0,0,1,1902.032,406.295Zm-.694.148q0-.576-.764-.576a2.168,2.168,0,0,0-.4.04q.03.509.03,1.151c.045,0,.1.005.156.005Q1901.338,407.064,1901.338,406.443Zm5.969.622a1.932,1.932,0,0,1-.506,1.369,1.641,1.641,0,0,1-1.251.543,1.581,1.581,0,0,1-1.189-.5,1.758,1.758,0,0,1-.479-1.268,1.932,1.932,0,0,1,.506-1.369,1.641,1.641,0,0,1,1.251-.543,1.583,1.583,0,0,1,1.189.5A1.757,1.757,0,0,1,1907.307,407.064Zm-.743.078a1.39,1.39,0,0,0-.288-.912.886.886,0,0,0-.71-.35.821.821,0,0,0-.667.352,1.407,1.407,0,0,0-.274.891,1.386,1.386,0,0,0,.289.911.886.886,0,0,0,.709.351.819.819,0,0,0,.667-.354A1.407,1.407,0,0,0,1906.565,407.142Zm4.389,1.738h-.664a6.543,6.543,0,0,0-.74-1.165,6.414,6.414,0,0,1-.882-1.52h-.043a9.454,9.454,0,0,1,.068,1.065q0,.664.037,1.62h-.662q.04-.834.04-1.832,0-.982-.04-1.671h.8a5.069,5.069,0,0,0,.664,1.138,6.679,6.679,0,0,1,.813,1.434h.04a10.115,10.115,0,0,1-.065-1.076q0-.729-.038-1.5h.673q-.038.667-.038,1.671T1910.953,408.88Z" transform="translate(-1827.945 -396.856)" fill="#444b54"/>
</svg>
