<svg id="Logo" xmlns="http://www.w3.org/2000/svg" width="174" height="36" viewBox="0 0 174 36">
  <g id="Group_1" data-name="Group 1" transform="translate(0 1.4)">
    <path id="low_s" data-name="low s" d="M5.4,22.864c-3.965-.825-6.38-4.22-5.024-7.086a1.922,1.922,0,0,1,.957-1.036,3.339,3.339,0,0,0,2.224,2.917l0,.008,0,0a5.018,5.018,0,0,0,1.741.441,18.21,18.21,0,0,0,2.609-.245,15.23,15.23,0,0,0,2.3-1.355c1.984-2.33,3.978-4.655,5.945-6.993,1.42-1.694.736-3.014-1.871-3.52a52.391,52.391,0,0,0-7.468-.464c-2.343-.106-2.9-.744-1.969-2.387.461-.8.977-1.591,1.364-2.42.289-.644.748-.828,1.621-.66,2.9.53,5.8,1,8.7,1.54.913.167,1.79.439,2.685.682v0a6.858,6.858,0,0,1,2.923,1.468,6.349,6.349,0,0,1,1.413,1.395c.609.821.531.8.643,1.243.673.928.139,1.87-.141,2.719a8.56,8.56,0,0,1-.685,1.925v0a36.023,36.023,0,0,1-7.456,9.343A10.636,10.636,0,0,1,8.5,23.2,15.232,15.232,0,0,1,5.4,22.864Z" transform="translate(6.241 10.456)" fill="#21386d"/>
    <path id="high_s" data-name="high s" d="M17.14,23.2c-3.663-.761-7.479-1.027-11.082-1.98l-.009-.014a15.086,15.086,0,0,1-4.976-2.78A4.384,4.384,0,0,1,0,15.735c-.008-1.542.686-2.327,1.041-3.486v0l0,0v0h0A35.661,35.661,0,0,1,8.39,2.865C11.229.263,14.845-.588,19.121.4c3.77.88,6.047,4.088,4.872,6.864a1.484,1.484,0,0,1-.966,1.045A3.52,3.52,0,0,0,21.1,5.668l-.017-.03L19.7,5.176l-2.03-.208a1.865,1.865,0,0,0-.869.247L14.139,6.72c-2.03,2.442-4.1,4.864-6.091,7.323-1.079,1.336-.5,2.458,1.45,3.041a24.281,24.281,0,0,0,6,.5c.91.037,1.827.046,2.737.1,1.575.1,2.2.731,1.677,1.85s-1.183,2.152-1.778,3.228a.79.79,0,0,1-.736.467A1.37,1.37,0,0,1,17.14,23.2Z" transform="translate(0 0)" fill="#21386d"/>
  </g>
  <g id="Word" transform="translate(32.001 0)">
    <path id="Path_2" data-name="Path 2" d="M164.289,56.335l6.442-5.582,4.028-3.5c.117-.1.23-.211.354-.3a1.174,1.174,0,0,1,1.693.078c.564.574.352,1.137-.188,1.611-1.516,1.344-3.027,2.7-4.574,4.007a.848.848,0,0,0-.243,1.234c1.674,3.356,3.306,6.742,4.954,10.114.48.983.4,1.622-.246,1.931-.7.336-1.417,0-1.868-.9q-2.312-4.674-4.6-9.357c-.134-.272-.282-.539-.455-.871-1.693,1.469-3.33,2.9-4.982,4.314a1.052,1.052,0,0,0-.316.919c0,1.523-.009,3.044,0,4.566,0,.768-.156,1.378-1.078,1.424-.837.043-1.259-.442-1.261-1.464V42.848c0-2.04-.689-2.826-2.753-3.151-.689-.108-1.129-.5-1.042-1.191.083-.757.687-.986,1.372-.969a4.772,4.772,0,0,1,4.762,4.862c.013,4.378,0,8.762,0,13.136Z" transform="translate(-158.143 -37.298)" fill="#21386d"/>
    <path id="Path_3" data-name="Path 3" d="M837.953,100.675c1.814-4.762,3.575-9.359,5.308-13.964.228-.6.514-1.053,1.23-1.078a1.137,1.137,0,0,1,1.14,1.689c-.911,2.444-1.857,4.868-2.792,7.292q-2.557,6.639-5.11,13.274a8.078,8.078,0,0,1-1.947,3.14,4.411,4.411,0,0,1-3.417,1.245c-.617-.043-1.084-.345-1.075-1.053a1,1,0,0,1,1.039-1.091,2.915,2.915,0,0,0,2.69-1.991c.564-1.271,1.016-2.6,1.534-3.891a1.352,1.352,0,0,0-.1-1.063q-2.913-7.549-5.806-15.1c-.111-.289-.2-.585-.322-.873a1.015,1.015,0,0,1,.587-1.514,1.19,1.19,0,0,1,1.682.856q2,5.261,3.983,10.524C837.016,98.231,837.458,99.381,837.953,100.675Z" transform="translate(-703.748 -76.392)" fill="#21386d"/>
    <path id="Path_4" data-name="Path 4" d="M716.67,52.653c0-3.356.1-6.712-.028-10.054-.128-3.38,2.606-6.779,7.434-6.287.6.062,1.108.345,1.112,1.037s-.48.984-1.082,1.076a9.3,9.3,0,0,1-1.317.047,3.769,3.769,0,0,0-3.8,3.6c-.041.9.019,1.8-.024,2.7-.026.511.166.623.642.612,1.251-.03,2.506-.013,3.763,0a5.047,5.047,0,0,1,.839.069,1.006,1.006,0,0,1,.958.983,1.024,1.024,0,0,1-.986,1.061c-.713.076-1.437.037-2.154.071-.99.047-2.307-.421-2.883.186s-.154,1.89-.156,2.877c-.013,4.288,0,8.576,0,12.849,0,.983-.376,1.348-1.259,1.318s-1.057-.589-1.055-1.326Q716.675,58.048,716.67,52.653Z" transform="translate(-611.558 -36.264)" fill="#21386d"/>
    <path id="Path_5" data-name="Path 5" d="M778.789,53.727V43.2c0-2.276-.578-2.949-2.822-3.378-.6-.114-1.076-.412-1.024-1.119s.506-.932,1.15-.977a4.755,4.755,0,0,1,5.022,4.778c.045,7.457.019,14.9.013,22.348,0,.893-.425,1.326-1.21,1.32s-1.129-.4-1.129-1.374Q778.783,59.266,778.789,53.727Z" transform="translate(-658.891 -37.448)" fill="#21386d"/>
    <path id="Path_6" data-name="Path 6" d="M644.821,97.46c.115-1.736-.254-3.895.164-6.013a8.056,8.056,0,0,1,8.254-6.352c.708.032,1.36.231,1.37,1.079s-.615,1.061-1.338,1.1c-3.991.213-6.152,2.48-6.152,6.451v9.415c0,.951-.339,1.346-1.129,1.359s-1.155-.373-1.161-1.324C644.821,101.405,644.821,99.634,644.821,97.46Z" transform="translate(-553.221 -75.985)" fill="#21386d"/>
    <g id="i" transform="translate(22.651 0.1)">
      <path id="Path_7" data-name="Path 7" d="M282.4,96.883V90.46a2.619,2.619,0,0,0-2.495-2.825c-.73-.1-1.409-.272-1.375-1.184.024-.679.722-1.046,1.663-.949a4.8,4.8,0,0,1,4.6,5.034c.017,4.288,0,8.565,0,12.845,0,1.033-.4,1.491-1.242,1.477-.811-.013-1.146-.431-1.148-1.458C282.4,101.227,282.4,99.055,282.4,96.883Z" transform="translate(-278.534 -76.41)" fill="#21386d"/>
      <path id="Path_8" data-name="Path 8" d="M293.881,38.954c0,.339.026.68,0,1.018a1.282,1.282,0,0,1-2.557.073,13.16,13.16,0,0,1,0-2.127,1.149,1.149,0,0,1,1.328-1.119,1.118,1.118,0,0,1,1.215,1.135,9.664,9.664,0,0,1,0,1.018Z" transform="translate(-288.883 -36.799)" fill="#21386d"/>
    </g>
    <path id="Path_15" data-name="Path 15" d="M454.768,92.656c-.752-4.26-4.692-6.9-9.18-6.359-3.992.477-6.807,3.112-7.1,7.068-.228,3.087-.045,6.2-.045,9.305h-.068c0,2.949-.011,5.9,0,8.848,0,1.119.834,1.691,1.693,1.24a1.323,1.323,0,0,0,.627-1.354c0-1.646.032-3.292-.011-4.937-.017-.654.188-.843.843-.833,1.94.032,3.885.045,5.833-.028a7.723,7.723,0,0,0,7.338-6.1A18.289,18.289,0,0,0,454.768,92.656Zm-2.3,6.054a5.718,5.718,0,0,1-5.793,4.814c-1.693,0-3.387-.045-5.071.021-.781.03-.941-.248-.909-.945.049-1.456.015-2.914.015-4.372v-4a5.936,5.936,0,0,1,11.8-.8A18.376,18.376,0,0,1,452.472,98.71Z" transform="translate(-385.649 -76.912)" fill="#21386d"/>
    <path id="Path_16" data-name="Path 16" d="M347.643,93.729a6.09,6.09,0,0,0-.482-2.357c-1.447-3.762-5.311-5.748-9.635-4.963a7.868,7.868,0,0,0-6.444,7.935c-.03,2.765,0,5.528,0,8.293V111.4c0,1,.39,1.491,1.15,1.491s1.155-.451,1.159-1.449c0-1.553.055-3.108-.019-4.661-.04-.871.162-1.188,1.11-1.152,1.91.071,3.825.056,5.733-.022a7.855,7.855,0,0,0,7.262-6.218A33.415,33.415,0,0,0,347.643,93.729Zm-2.435,4.957a5.783,5.783,0,0,1-5.686,4.847h-5.548c-.356,0-.6-.041-.6-.488.021-3.169-.149-6.339.083-9.5.239-3.244,2.894-5.274,6.224-5.155a5.705,5.705,0,0,1,5.6,5.541A22.534,22.534,0,0,1,345.208,98.686Z" transform="translate(-298.533 -76.922)" fill="#21386d"/>
    <path id="Path_17" data-name="Path 17" d="M557.506,103.615h-4.327a5.166,5.166,0,0,1-5.268-5.625c.032-.466.2-.574.625-.559,1.065.017,2.13,0,3.2,0,1,0,2.005.022,3.01,0a5.526,5.526,0,1,0,.333-11.046,22.891,22.891,0,0,0-2.634-.013,6.939,6.939,0,0,0-6.683,5.837,29.247,29.247,0,0,0-.049,7.241,6.862,6.862,0,0,0,6.043,6.2c1.882.209,3.816.084,5.725.1.732.009,1.336-.186,1.342-1.059S558.242,103.615,557.506,103.615Zm-8.22-13.729a4.289,4.289,0,0,1,2.9-1.357,21.777,21.777,0,0,1,2.822,0,3.285,3.285,0,0,1,3.1,3.261,3.323,3.323,0,0,1-3.042,3.421c-1.148.11-2.314.021-3.473.021v.06h-3.01c-.267,0-.613.075-.625-.354C547.9,93.13,547.86,91.31,549.286,89.886Z" transform="translate(-472.628 -77.004)" fill="#21386d"/>
  </g>
</svg>
