<svg xmlns="http://www.w3.org/2000/svg" width="124.524" height="26" viewBox="0 0 124.524 26">
  <g id="Logo" transform="translate(-4.983 -13.211)">
    <g id="Group_1" data-name="Group 1" transform="translate(4.983 14.211)">
      <path id="low_s" data-name="low s" d="M3.86,16.526C1.028,15.929-.7,13.475.272,11.4a1.383,1.383,0,0,1,.684-.749,2.41,2.41,0,0,0,1.589,2.108l0,.006v0a3.551,3.551,0,0,0,1.244.319,12.859,12.859,0,0,0,1.864-.177,10.849,10.849,0,0,0,1.643-.98c1.417-1.684,2.842-3.365,4.247-5.055,1.015-1.224.526-2.178-1.337-2.544a36.989,36.989,0,0,0-5.334-.335C3.2,3.918,2.8,3.456,3.468,2.269c.329-.58.7-1.15.974-1.749.207-.466.534-.6,1.158-.477,2.071.383,4.143.724,6.214,1.113.652.121,1.279.318,1.918.493h0A4.878,4.878,0,0,1,15.82,2.707a4.561,4.561,0,0,1,1.009,1.008c.435.593.379.58.46.9.481.671.1,1.351-.1,1.965A6.235,6.235,0,0,1,16.7,7.971v0a25.988,25.988,0,0,1-5.326,6.753,7.547,7.547,0,0,1-5.3,2.048A10.757,10.757,0,0,1,3.86,16.526Z" transform="translate(4.458 7.558)" fill="#fff"/>
      <path id="high_s" data-name="high s" d="M12.243,16.772c-2.617-.55-5.342-.743-7.915-1.431l-.006-.01A10.75,10.75,0,0,1,.766,13.321,3.191,3.191,0,0,1,0,11.373,7.1,7.1,0,0,1,.743,8.853h0v0l0-.005v0A25.751,25.751,0,0,1,5.993,2.071,7.987,7.987,0,0,1,13.657.289c2.693.636,4.319,2.955,3.48,4.961a1.068,1.068,0,0,1-.689.755A2.544,2.544,0,0,0,15.074,4.1l-.012-.022-.99-.334-1.449-.15A1.317,1.317,0,0,0,12,3.77L10.1,4.857c-1.45,1.765-2.931,3.516-4.35,5.293-.77.966-.359,1.777,1.036,2.2a17.153,17.153,0,0,0,4.288.363c.65.027,1.3.034,1.955.073,1.125.07,1.568.528,1.2,1.337s-.845,1.555-1.27,2.333a.565.565,0,0,1-.526.338A.963.963,0,0,1,12.243,16.772Z" transform="translate(0 0)" fill="#fff"/>
    </g>
    <g id="Word" transform="translate(27.884 13.211)">
      <path id="Path_2" data-name="Path 2" d="M162.541,51.113l4.61-4.031,2.883-2.526c.083-.074.164-.152.253-.219a.835.835,0,0,1,1.212.057c.4.415.252.821-.135,1.163-1.085.971-2.166,1.948-3.273,2.894a.615.615,0,0,0-.174.891c1.2,2.424,2.366,4.869,3.545,7.3.343.71.287,1.171-.176,1.395-.5.242-1.014,0-1.337-.653q-1.655-3.376-3.292-6.758c-.1-.2-.2-.389-.326-.629-1.212,1.061-2.383,2.094-3.565,3.116a.764.764,0,0,0-.226.664c0,1.1-.007,2.2,0,3.3,0,.555-.112,1-.772,1.029-.6.031-.9-.319-.9-1.057V41.372c0-1.473-.493-2.041-1.97-2.276-.493-.078-.808-.36-.746-.86.059-.547.491-.712.982-.7a3.432,3.432,0,0,1,3.408,3.512c.009,3.162,0,6.328,0,9.487Z" transform="translate(-158.143 -37.364)" fill="#fff"/>
      <path id="Path_3" data-name="Path 3" d="M835.746,96.484c1.3-3.439,2.558-6.759,3.8-10.085.163-.435.368-.761.881-.778.7-.026,1.077.508.816,1.22-.652,1.765-1.329,3.516-2,5.266q-1.83,4.795-3.657,9.587a5.843,5.843,0,0,1-1.394,2.267,3.14,3.14,0,0,1-2.445.9c-.442-.031-.776-.249-.769-.761a.721.721,0,0,1,.743-.788,2.088,2.088,0,0,0,1.925-1.438c.4-.918.727-1.874,1.1-2.81a.984.984,0,0,0-.07-.767q-2.084-5.452-4.155-10.9c-.079-.209-.145-.423-.23-.63a.735.735,0,0,1,.42-1.093c.553-.218.975,0,1.2.618q1.43,3.8,2.85,7.6C835.076,94.719,835.392,95.55,835.746,96.484Z" transform="translate(-739.702 -78.947)" fill="#fff"/>
      <path id="Path_4" data-name="Path 4" d="M716.66,48.1c0-2.424.071-4.847-.02-7.262-.092-2.441,1.865-4.9,5.32-4.54.431.044.793.249.8.749s-.343.711-.774.777a6.6,6.6,0,0,1-.943.034,2.708,2.708,0,0,0-2.717,2.6c-.029.649.014,1.3-.017,1.95-.019.369.119.45.459.442.9-.022,1.794-.009,2.693,0a3.58,3.58,0,0,1,.6.05.724.724,0,0,1,.685.71.737.737,0,0,1-.706.766c-.51.055-1.029.027-1.542.051-.708.034-1.651-.3-2.063.135s-.11,1.365-.112,2.078c-.009,3.1,0,6.194,0,9.28,0,.71-.269.974-.9.952s-.757-.425-.755-.957Q716.665,52,716.66,48.1Z" transform="translate(-641.437 -36.264)" fill="#fff"/>
      <path id="Path_5" data-name="Path 5" d="M777.694,49.281v-7.6c0-1.644-.413-2.13-2.02-2.44-.427-.082-.77-.3-.733-.808s.362-.673.823-.706a3.417,3.417,0,0,1,3.594,3.451c.032,5.386.014,10.76.01,16.14,0,.645-.3.957-.866.953s-.808-.289-.808-.992Q777.69,53.281,777.694,49.281Z" transform="translate(-691.889 -37.524)" fill="#fff"/>
      <path id="Path_6" data-name="Path 6" d="M644.809,94.023a30.043,30.043,0,0,1,.117-4.342,5.775,5.775,0,0,1,5.907-4.587c.506.023.974.167.98.78s-.44.766-.957.793c-2.856.154-4.4,1.791-4.4,4.659v6.8c0,.687-.242.972-.808.982s-.827-.269-.831-.956C644.809,96.873,644.809,95.593,644.809,94.023Z" transform="translate(-579.255 -78.514)" fill="#fff"/>
      <g id="i" transform="translate(16.21 0.072)">
        <path id="Path_7" data-name="Path 7" d="M281.3,93.718V89.079a1.886,1.886,0,0,0-1.785-2.04c-.522-.069-1.009-.2-.984-.855.017-.49.517-.755,1.19-.685a3.451,3.451,0,0,1,3.289,3.635c.012,3.1,0,6.186,0,9.277,0,.746-.285,1.077-.889,1.066-.58-.009-.82-.311-.821-1.053C281.3,96.855,281.3,95.286,281.3,93.718Z" transform="translate(-278.534 -78.932)" fill="#fff"/>
        <path id="Path_8" data-name="Path 8" d="M293.142,38.355c0,.245.019.491,0,.735-.05.539-.311.878-.887.883a.832.832,0,0,1-.943-.831,9.592,9.592,0,0,1,0-1.536.825.825,0,0,1,.951-.808.8.8,0,0,1,.87.82,7.05,7.05,0,0,1,0,.735Z" transform="translate(-289.565 -36.799)" fill="#fff"/>
      </g>
      <path id="Path_15" data-name="Path 15" d="M450.106,90.87a5.717,5.717,0,0,0-6.569-4.593,5.419,5.419,0,0,0-5.079,5.1c-.163,2.23-.032,4.48-.032,6.72h-.048c0,2.13-.008,4.26,0,6.39,0,.808.6,1.221,1.212.9a.958.958,0,0,0,.448-.978c0-1.189.023-2.378-.008-3.565-.012-.473.135-.609.6-.6,1.388.023,2.781.032,4.174-.02a5.541,5.541,0,0,0,5.251-4.4A13.328,13.328,0,0,0,450.106,90.87Zm-1.643,4.372a4.1,4.1,0,0,1-4.146,3.477c-1.212,0-2.424-.032-3.629.015-.559.022-.673-.179-.65-.683.035-1.052.011-2.1.011-3.158V92a4.245,4.245,0,0,1,8.448-.58,13.392,13.392,0,0,1-.034,3.819Z" transform="translate(-400.641 -79.5)" fill="#fff"/>
      <path id="Path_16" data-name="Path 16" d="M342.93,91.649a4.433,4.433,0,0,0-.345-1.7,5.931,5.931,0,0,0-6.9-3.584,5.67,5.67,0,0,0-4.612,5.731c-.022,2,0,3.992,0,5.989v6.328c0,.723.279,1.077.823,1.077s.827-.326.829-1.046c0-1.122.039-2.245-.013-3.366-.028-.629.116-.858.794-.832,1.367.051,2.737.04,4.1-.016a5.637,5.637,0,0,0,5.2-4.491A24.357,24.357,0,0,0,342.93,91.649Zm-1.742,3.58a4.15,4.15,0,0,1-4.069,3.5h-3.971c-.254,0-.428-.03-.427-.353.015-2.289-.106-4.578.059-6.858a4.037,4.037,0,0,1,4.454-3.723,4.1,4.1,0,0,1,4.008,4A16.422,16.422,0,0,1,341.188,95.229Z" transform="translate(-307.785 -79.511)" fill="#fff"/>
      <path id="Path_17" data-name="Path 17" d="M554.1,98.817H551a3.717,3.717,0,0,1-3.77-4.062c.023-.337.147-.415.447-.4.762.012,1.524,0,2.289,0,.718,0,1.435.016,2.154,0a3.991,3.991,0,0,0,.238-7.978,16.235,16.235,0,0,0-1.885-.009,4.981,4.981,0,0,0-4.783,4.216,21.31,21.31,0,0,0-.035,5.23,4.935,4.935,0,0,0,4.325,4.478,40.681,40.681,0,0,0,4.1.074c.524.007.956-.135.96-.765S554.622,98.817,554.1,98.817ZM548.213,88.9a3.058,3.058,0,0,1,2.075-.98,15.444,15.444,0,0,1,2.02,0,2.363,2.363,0,0,1,2.216,2.355,2.392,2.392,0,0,1-2.177,2.471c-.821.079-1.656.015-2.485.015V92.8h-2.154c-.191,0-.439.054-.447-.256C547.223,91.244,547.192,89.93,548.213,88.9Z" transform="translate(-493.352 -79.597)" fill="#fff"/>
    </g>
  </g>
</svg>
