<svg xmlns="http://www.w3.org/2000/svg" width="211" height="30.601" viewBox="0 0 211 30.601">
  <g id="paymentMethods" transform="translate(-145 -2062)">
    <g id="icons8-mastercard" transform="translate(204.501 2062)">
      <path id="Path_42" data-name="Path 42" d="M44.582,52.466H12.558A3.569,3.569,0,0,1,9,48.908V27.558A3.569,3.569,0,0,1,12.558,24H44.582a3.569,3.569,0,0,1,3.558,3.558V48.908A3.569,3.569,0,0,1,44.582,52.466Z" transform="translate(-7.897 -22.933)" fill="#fff"/>
      <path id="Path_43" data-name="Path 43" d="M42.65,51.6H10.626A4.616,4.616,0,0,1,6,46.975V25.626A4.616,4.616,0,0,1,10.626,21H42.65a4.616,4.616,0,0,1,4.626,4.626V46.975A4.616,4.616,0,0,1,42.65,51.6ZM10.626,23.135a2.475,2.475,0,0,0-2.491,2.491V46.975a2.475,2.475,0,0,0,2.491,2.491H42.65a2.475,2.475,0,0,0,2.491-2.491V25.626a2.475,2.475,0,0,0-2.491-2.491Z" transform="translate(-5.964 -21)" fill="#444b54"/>
      <path id="Path_44" data-name="Path 44" d="M7,48.183a.451.451,0,0,1-.213-.036.506.506,0,0,1-.213-.071c-.071-.036-.107-.071-.178-.107a.625.625,0,0,1-.178-.142.776.776,0,0,1-.142-.178c-.036-.071-.071-.107-.107-.178s-.036-.142-.071-.213c.036,0,.036-.071.036-.142a.451.451,0,0,1,.036-.213.506.506,0,0,1,.071-.213c.036-.071.071-.107.107-.178a.278.278,0,0,1,.142-.142,1.1,1.1,0,0,1,1.494,0l.142.142c.036.071.071.107.107.178s.036.142.071.213c0,.071.036.142.036.213a.969.969,0,0,1-.32.747A1.254,1.254,0,0,1,7,48.183Z" transform="translate(-5.9 -37.153)" fill="#444b54"/>
      <path id="Path_45" data-name="Path 45" d="M66.116,44a7.116,7.116,0,1,0,7.116,7.116A7.116,7.116,0,0,0,66.116,44Z" transform="translate(-40.106 -35.816)" fill="#ff697d"/>
      <path id="Path_46" data-name="Path 46" d="M36.116,44a7.116,7.116,0,1,0,7.116,7.116A7.116,7.116,0,0,0,36.116,44Z" transform="translate(-20.781 -35.816)" fill="#fcf09d"/>
    </g>
    <g id="icons8-paypal" transform="translate(325.204 2062)">
      <path id="Path_52" data-name="Path 52" d="M4,7.064A2.67,2.67,0,0,1,6.664,4.4h24A2.67,2.67,0,0,1,33.33,7.064v23.83a2.67,2.67,0,0,1-2.664,2.664h-24A2.67,2.67,0,0,1,4,30.894V7.064" transform="translate(-3.267 -3.667)" fill="#fff"/>
      <path id="Path_53" data-name="Path 53" d="M28.4,32H4.4A3.39,3.39,0,0,1,1,28.6V4.8A3.39,3.39,0,0,1,4.4,1.4h24a3.39,3.39,0,0,1,3.4,3.4v23.83A3.385,3.385,0,0,1,28.4,32ZM4.4,2.866A1.919,1.919,0,0,0,2.466,4.8v23.83A1.919,1.919,0,0,0,4.4,30.559h24a1.919,1.919,0,0,0,1.931-1.931V4.8A1.919,1.919,0,0,0,28.4,2.866Z" transform="translate(-1 -1.4)" fill="#444b54"/>
      <path id="Path_54" data-name="Path 54" d="M37.288,45.656l.635-2.689a.97.97,0,0,1,.88-.684h.513a8.51,8.51,0,0,0,5.206-1.369,4.207,4.207,0,0,0,1.858-3.568,3.612,3.612,0,0,0-.342-1.638,2.587,2.587,0,0,0-1-1.051,4.883,4.883,0,0,0-1.589-.587A11.11,11.11,0,0,0,41.3,33.9H37.484a.97.97,0,0,0-.88.684L34.038,45.656a.543.543,0,0,0,.562.684h1.833A.94.94,0,0,0,37.288,45.656Zm1.491-6.4.562-2.346a.97.97,0,0,1,.88-.684h.611a3.068,3.068,0,0,1,1.589.342,1.157,1.157,0,0,1,.538,1.075,1.92,1.92,0,0,1-.831,1.686,3.946,3.946,0,0,1-2.3.587h-.464A.533.533,0,0,1,38.779,39.253Z" transform="translate(-25.948 -25.957)" fill="#71c2ff"/>
      <path id="Path_55" data-name="Path 55" d="M54.48,47.516a3.919,3.919,0,0,1,.147,1.124,4.207,4.207,0,0,1-1.858,3.568,8.729,8.729,0,0,1-5.206,1.369H47.05a.97.97,0,0,0-.88.684l-.635,2.664a.97.97,0,0,1-.88.684H43.506l-.1.44a.519.519,0,0,0,.538.684h1.833a.97.97,0,0,0,.88-.684l.635-2.664a.97.97,0,0,1,.88-.684h.489a8.559,8.559,0,0,0,5.206-1.369,4.207,4.207,0,0,0,1.858-3.568,3.612,3.612,0,0,0-.342-1.638,2.164,2.164,0,0,0-.587-.733C54.7,47.272,54.407,47.321,54.48,47.516Z" transform="translate(-33.02 -36.102)" fill="#71c2ff"/>
    </g>
    <g id="icons8-american_express" transform="translate(145 2062)">
      <path id="Path_56" data-name="Path 56" d="M44.582,55.466H12.558A3.569,3.569,0,0,1,9,51.908V30.558A3.569,3.569,0,0,1,12.558,27H44.582a3.569,3.569,0,0,1,3.558,3.558V51.908A3.569,3.569,0,0,1,44.582,55.466Z" transform="translate(-7.933 -24.865)" fill="#fff"/>
      <path id="Path_57" data-name="Path 57" d="M45.108,58.149v1.21h3.416v1.317H45.108v1.317h3.843l1.815-1.921-1.744-1.921ZM28.1,60.533h2.135L29.167,57.9Z" transform="translate(-20.236 -44.77)" fill="#9eb9d3"/>
      <path id="Path_58" data-name="Path 58" d="M49.129,51.1H44.5a.323.323,0,0,0-.249.107l-.925,1a.387.387,0,0,1-.534,0l-.854-.961a.4.4,0,0,0-.285-.107H30.092a.311.311,0,0,0-.32.213l-.6,1.423a.347.347,0,0,1-.64,0l-.64-1.423a.342.342,0,0,0-.32-.213H23.332a.336.336,0,0,0-.356.356V52.2l-.427-.89a.409.409,0,0,0-.32-.213H18.564a.311.311,0,0,0-.32.213l-3.7,8.469a.351.351,0,0,0,.32.5h4.021a.311.311,0,0,0,.32-.214l.427-1.032a.342.342,0,0,1,.32-.214h.89a.311.311,0,0,1,.32.214l.427,1.032a.342.342,0,0,0,.32.214h4.7a.336.336,0,0,0,.356-.356v-.747l.391.89a.342.342,0,0,0,.32.214H29.95a.311.311,0,0,0,.32-.214l.391-.925v.783a.336.336,0,0,0,.356.356h10.5a.323.323,0,0,0,.249-.107l.961-1.032a.387.387,0,0,1,.534,0l.89,1a.384.384,0,0,0,.249.107h4.7a.372.372,0,0,0,.285-.6L46.069,55.9a.374.374,0,0,1,0-.463l3.309-3.772A.332.332,0,0,0,49.129,51.1ZM33.01,58.964h-.854a.336.336,0,0,1-.356-.356v-3.1a.352.352,0,0,0-.676-.142L29.63,58.786a.342.342,0,0,1-.32.213h-.925a.311.311,0,0,1-.32-.213L26.57,55.37a.352.352,0,0,0-.676.142v3.131a.336.336,0,0,1-.356.356h-2.6a.311.311,0,0,1-.32-.213l-.463-1.067a.342.342,0,0,0-.32-.213H19.026a.311.311,0,0,0-.32.213l-.427,1.032a.342.342,0,0,1-.32.213h-.925a.351.351,0,0,1-.32-.5l2.526-5.871a.342.342,0,0,1,.32-.213h1.886a.311.311,0,0,1,.32.213l1.886,4.412a.352.352,0,0,0,.676-.142V52.772a.336.336,0,0,1,.356-.356h1.993a.342.342,0,0,1,.32.214l1.637,3.523a.347.347,0,0,0,.64,0l1.494-3.523a.342.342,0,0,1,.32-.214h1.957a.336.336,0,0,1,.356.356v5.871A.417.417,0,0,1,33.01,58.964Zm13.165,0H45.108a.277.277,0,0,1-.249-.107l-1.566-1.779a.387.387,0,0,0-.534,0l-1.637,1.779a.384.384,0,0,1-.249.107H35.18a.336.336,0,0,1-.356-.356V52.772a.336.336,0,0,1,.356-.356h5.8a.277.277,0,0,1,.249.107L42.8,54.267a.387.387,0,0,0,.534,0l1.637-1.744a.384.384,0,0,1,.249-.107h1a.353.353,0,0,1,.249.6l-2.206,2.491a.373.373,0,0,0,0,.463L46.46,58.43C46.638,58.608,46.46,58.964,46.175,58.964Z" transform="translate(-11.483 -40.39)" fill="#9eb9d3"/>
      <g id="Group_145" data-name="Group 145" transform="translate(0 0)">
        <path id="Path_59" data-name="Path 59" d="M42.65,51.6H10.626A4.616,4.616,0,0,1,6,46.975V25.626A4.616,4.616,0,0,1,10.626,21H42.65a4.616,4.616,0,0,1,4.626,4.626V46.975A4.616,4.616,0,0,1,42.65,51.6ZM10.626,23.135a2.475,2.475,0,0,0-2.491,2.491V46.975a2.475,2.475,0,0,0,2.491,2.491H42.65a2.475,2.475,0,0,0,2.491-2.491V25.626a2.475,2.475,0,0,0-2.491-2.491Z" transform="translate(-6 -21)" fill="#444b54"/>
      </g>
      <g id="Group_146" data-name="Group 146" transform="translate(0 8.874)">
        <path id="Path_60" data-name="Path 60" d="M7.067,48.1a.451.451,0,0,1-.213-.036.506.506,0,0,1-.213-.071c-.071-.036-.107-.071-.178-.107a.278.278,0,0,1-.142-.142A.848.848,0,0,1,6,47.028a.969.969,0,0,1,.32-.747l.142-.142c.071-.036.107-.071.178-.107s.142-.036.213-.071a1.055,1.055,0,0,1,.961.285,1.024,1.024,0,0,1,.32.747.969.969,0,0,1-.32.747A.894.894,0,0,1,7.067,48.1Z" transform="translate(-6 -45.939)" fill="#444b54"/>
      </g>
    </g>
    <g id="icons8-mastercard_credit_card" transform="translate(264.003 2062)">
      <path id="Path_47" data-name="Path 47" d="M51.261,57.185h-33.3A3.462,3.462,0,0,1,14.5,53.722V32.463A3.462,3.462,0,0,1,17.963,29h33.3a3.462,3.462,0,0,1,3.463,3.463V53.682A3.5,3.5,0,0,1,51.261,57.185Z" transform="translate(-13.292 -27.792)" fill="#fff"/>
      <path id="Path_48" data-name="Path 48" d="M14,44H54.264v6.16H14Z" transform="translate(-12.993 -36.752)" fill="#c7d6e2"/>
      <path id="Path_49" data-name="Path 49" d="M93.063,72.4a3.544,3.544,0,1,0,3.463,3.543A3.5,3.5,0,0,0,93.063,72.4Z" transform="translate(-58.154 -53.717)" fill="#f7f0be"/>
      <path id="Path_50" data-name="Path 50" d="M79.263,72.4a3.544,3.544,0,1,0,3.463,3.543A3.5,3.5,0,0,0,79.263,72.4Z" transform="translate(-49.91 -53.717)" fill="#f1c0c2"/>
      <path id="Path_51" data-name="Path 51" d="M49.469,56.6h-33.3A4.674,4.674,0,0,1,11.5,51.93V30.671A4.674,4.674,0,0,1,16.171,26h33.3a4.674,4.674,0,0,1,4.671,4.671V51.89A4.683,4.683,0,0,1,49.469,56.6Zm-33.3-28.185a2.251,2.251,0,0,0-2.255,2.255V51.89a2.251,2.251,0,0,0,2.255,2.255h33.3a2.251,2.251,0,0,0,2.255-2.255V30.671a2.251,2.251,0,0,0-2.255-2.255Z" transform="translate(-11.5 -26)" fill="#444b54"/>
    </g>
  </g>
</svg>
