<svg id="download-on-the-app-store-apple" xmlns="http://www.w3.org/2000/svg" width="128.09" height="37.953" viewBox="0 0 128.09 37.953">
  <path id="Path_24" data-name="Path 24" d="M123.6,37.953H4.489A4.49,4.49,0,0,1,0,33.473V4.485A4.493,4.493,0,0,1,4.489,0H123.6a4.5,4.5,0,0,1,4.489,4.485V33.472a4.489,4.489,0,0,1-4.488,4.481Z" transform="translate(0 0)" fill="none"/>
  <path id="Path_25" data-name="Path 25" d="M129.958,36.189a3.635,3.635,0,0,1-3.64,3.635H7.206a3.64,3.64,0,0,1-3.644-3.635V7.2a3.645,3.645,0,0,1,3.644-3.64H126.318a3.639,3.639,0,0,1,3.64,3.64V36.189Z" transform="translate(-2.717 -2.716)" fill="none"/>
  <path id="Path_26" data-name="Path 26" d="M67.653,37.751a5.5,5.5,0,0,1,2.621-4.616,5.637,5.637,0,0,0-4.439-2.4c-1.867-.2-3.679,1.117-4.63,1.117-.97,0-2.435-1.1-4.014-1.066a5.91,5.91,0,0,0-4.975,3.033c-2.151,3.723-.547,9.195,1.514,12.2,1.031,1.475,2.236,3.12,3.813,3.062,1.543-.063,2.119-.982,3.981-.982,1.845,0,2.386.982,3.994.945,1.656-.026,2.7-1.481,3.693-2.968A12.165,12.165,0,0,0,70.9,42.643,5.323,5.323,0,0,1,67.653,37.751Zm-3.038-9a5.414,5.414,0,0,0,1.24-3.881,5.518,5.518,0,0,0-3.568,1.845,5.153,5.153,0,0,0-1.272,3.737A4.558,4.558,0,0,0,64.615,28.756Z" transform="translate(-39.051 -18.974)" fill="#444b54"/>
  <g id="Group_119" data-name="Group 119" transform="translate(40.28 17.083)">
    <path id="Path_28" data-name="Path 28" d="M180.477,84.833h-2.156l-1.181-3.71h-4.1l-1.125,3.71h-2.1L173.88,72.2h2.512Zm-3.693-5.266-1.068-3.3q-.169-.505-.637-2.379h-.038q-.188.806-.6,2.379l-1.05,3.3Zm14.134.6a5.156,5.156,0,0,1-1.263,3.672,3.7,3.7,0,0,1-2.808,1.2,2.811,2.811,0,0,1-2.6-1.292v4.779h-2.024V78.719q0-1.459-.075-2.993h1.78l.113,1.444h.038a3.6,3.6,0,0,1,5.763-.358A5.035,5.035,0,0,1,190.918,80.167Zm-2.062.074a3.754,3.754,0,0,0-.6-2.193,2.074,2.074,0,0,0-1.762-.9,2.105,2.105,0,0,0-1.358.5,2.3,2.3,0,0,0-.8,1.3,2.638,2.638,0,0,0-.094.616v1.52a2.436,2.436,0,0,0,.609,1.678,2.023,2.023,0,0,0,1.584.684,2.075,2.075,0,0,0,1.78-.881A3.876,3.876,0,0,0,188.856,80.242Zm12.54-.074a5.156,5.156,0,0,1-1.263,3.672,3.7,3.7,0,0,1-2.809,1.2,2.811,2.811,0,0,1-2.6-1.292v4.779H192.7V78.719q0-1.459-.075-2.993h1.78l.113,1.444h.038a3.6,3.6,0,0,1,5.764-.358,5.04,5.04,0,0,1,1.077,3.356Zm-2.063.074a3.754,3.754,0,0,0-.6-2.193,2.071,2.071,0,0,0-1.76-.9,2.114,2.114,0,0,0-1.36.5,2.3,2.3,0,0,0-.8,1.3,2.7,2.7,0,0,0-.095.616v1.52a2.444,2.444,0,0,0,.609,1.678,2.028,2.028,0,0,0,1.585.684,2.072,2.072,0,0,0,1.78-.881A3.876,3.876,0,0,0,199.333,80.242Zm13.778,1.049a3.373,3.373,0,0,1-1.123,2.624,4.979,4.979,0,0,1-3.441,1.106,6.008,6.008,0,0,1-3.271-.787l.468-1.687a5.632,5.632,0,0,0,2.924.788,2.759,2.759,0,0,0,1.78-.515,1.683,1.683,0,0,0,.639-1.376,1.764,1.764,0,0,0-.526-1.294,4.876,4.876,0,0,0-1.743-.974q-3.318-1.237-3.319-3.618a3.194,3.194,0,0,1,1.172-2.548,4.633,4.633,0,0,1,3.1-.994,6.132,6.132,0,0,1,2.868.6l-.508,1.65a5.016,5.016,0,0,0-2.427-.581,2.469,2.469,0,0,0-1.675.525,1.5,1.5,0,0,0-.508,1.145,1.547,1.547,0,0,0,.582,1.237,6.557,6.557,0,0,0,1.836.974,6.224,6.224,0,0,1,2.4,1.536,3.2,3.2,0,0,1,.772,2.191Zm6.709-4.046h-2.231v4.422q0,1.687,1.181,1.686a3.557,3.557,0,0,0,.9-.094l.056,1.537a4.586,4.586,0,0,1-1.574.224,2.426,2.426,0,0,1-1.875-.732,3.588,3.588,0,0,1-.675-2.455V77.241h-1.329V75.722H215.6V74.054l1.988-.6v2.267h2.231Zm10.046,2.96a5,5,0,0,1-1.2,3.448,4.278,4.278,0,0,1-3.336,1.387,4.078,4.078,0,0,1-3.2-1.329,4.844,4.844,0,0,1-1.19-3.354,4.955,4.955,0,0,1,1.227-3.466,4.256,4.256,0,0,1,3.309-1.35,4.163,4.163,0,0,1,3.223,1.331A4.781,4.781,0,0,1,229.866,80.2Zm-2.1.046a4.077,4.077,0,0,0-.542-2.149,2,2,0,0,0-1.819-1.085,2.032,2.032,0,0,0-1.856,1.085,4.144,4.144,0,0,0-.543,2.187,4.065,4.065,0,0,0,.543,2.15,2.076,2.076,0,0,0,3.658-.018A4.093,4.093,0,0,0,227.768,80.251Zm8.68-2.746a3.526,3.526,0,0,0-.638-.056,1.91,1.91,0,0,0-1.65.807,3.038,3.038,0,0,0-.505,1.8v4.779H231.63V78.594q0-1.434-.059-2.867h1.763l.074,1.743h.056a3.124,3.124,0,0,1,1.012-1.444,2.448,2.448,0,0,1,1.463-.488,3.253,3.253,0,0,1,.506.037Zm9.052,2.343a4.751,4.751,0,0,1-.074.918h-6.072a2.641,2.641,0,0,0,.881,2.063,3.013,3.013,0,0,0,1.986.636,6.717,6.717,0,0,0,2.457-.43l.317,1.4A7.6,7.6,0,0,1,241.94,85a4.428,4.428,0,0,1-3.328-1.245,4.6,4.6,0,0,1-1.209-3.345,5.216,5.216,0,0,1,1.126-3.428,3.879,3.879,0,0,1,3.185-1.461,3.4,3.4,0,0,1,2.982,1.461A4.915,4.915,0,0,1,245.5,79.849Zm-1.93-.525a2.738,2.738,0,0,0-.393-1.556,1.767,1.767,0,0,0-1.612-.845,1.919,1.919,0,0,0-1.611.825,3.023,3.023,0,0,0-.6,1.574l4.215,0Z" transform="translate(-169.812 -72.016)" fill="#444b54"/>
  </g>
  <g id="Group_120" data-name="Group 120" transform="translate(41.465 6.219)">
    <path id="Path_29" data-name="Path 29" d="M176.262,32.8a12.929,12.929,0,0,1-1.455-.074V26.624a11.021,11.021,0,0,1,1.714-.129c2.321,0,3.39,1.142,3.39,3C179.91,31.644,178.647,32.8,176.262,32.8Zm.34-5.527a4.061,4.061,0,0,0-.8.065v4.642a5.252,5.252,0,0,0,.672.028,2.2,2.2,0,0,0,2.387-2.487A2.025,2.025,0,0,0,176.6,27.277Zm6.64,5.573a2.131,2.131,0,0,1-2.156-2.3,2.18,2.18,0,0,1,2.23-2.367,2.114,2.114,0,0,1,2.156,2.294A2.193,2.193,0,0,1,183.241,32.85Zm.038-3.942c-.719,0-1.179.672-1.179,1.612,0,.922.47,1.594,1.17,1.594s1.17-.718,1.17-1.612C184.439,29.589,183.979,28.908,183.279,28.908Zm9.652-.635-1.4,4.476h-.912l-.58-1.944a14.745,14.745,0,0,1-.36-1.445h-.019a9.7,9.7,0,0,1-.359,1.445l-.617,1.944h-.922l-1.318-4.476h1.022l.507,2.128q.179.76.3,1.437h.019c.073-.377.193-.848.368-1.427l.636-2.136h.811l.608,2.091c.147.507.267,1,.36,1.474h.027a12.893,12.893,0,0,1,.3-1.474l.544-2.091h.977Zm5.155,4.476h-.995v-2.57c0-.792-.3-1.188-.9-1.188a1.033,1.033,0,0,0-.995,1.1v2.662H194.2v-3.2c0-.4-.009-.82-.037-1.28h.875l.047.691h.028a1.608,1.608,0,0,1,1.419-.782c.94,0,1.557.718,1.557,1.888v2.68Zm2.744,0h-1v-6.53h1Zm3.627.1a2.131,2.131,0,0,1-2.156-2.3,2.18,2.18,0,0,1,2.229-2.367,2.113,2.113,0,0,1,2.156,2.294A2.192,2.192,0,0,1,204.457,32.85Zm.037-3.942c-.719,0-1.179.672-1.179,1.612,0,.922.471,1.594,1.169,1.594s1.17-.718,1.17-1.612C205.654,29.589,205.195,28.908,204.494,28.908Zm6.115,3.841-.072-.515h-.027a1.529,1.529,0,0,1-1.309.617,1.3,1.3,0,0,1-1.372-1.317c0-1.1.958-1.676,2.616-1.676v-.083c0-.589-.312-.885-.929-.885a2.1,2.1,0,0,0-1.17.332l-.2-.654a2.862,2.862,0,0,1,1.537-.387c1.17,0,1.76.617,1.76,1.852v1.649a6.754,6.754,0,0,0,.065,1.069h-.9Zm-.137-2.229c-1.105,0-1.659.268-1.659.9a.634.634,0,0,0,.683.7.953.953,0,0,0,.977-.911Zm5.8,2.229-.047-.718H216.2a1.5,1.5,0,0,1-1.437.82,2.04,2.04,0,0,1-1.879-2.284,2.124,2.124,0,0,1,1.96-2.386,1.345,1.345,0,0,1,1.263.608h.02V26.219h1v5.323c0,.433.01.838.037,1.206h-.886Zm-.147-2.634a1.083,1.083,0,0,0-1.048-1.161c-.738,0-1.189.654-1.189,1.575,0,.9.468,1.52,1.169,1.52a1.117,1.117,0,0,0,1.068-1.188v-.746Zm7.31,2.735a2.13,2.13,0,0,1-2.155-2.3,2.18,2.18,0,0,1,2.229-2.367,2.113,2.113,0,0,1,2.156,2.294,2.192,2.192,0,0,1-2.23,2.376Zm.037-3.942c-.718,0-1.178.672-1.178,1.612,0,.922.47,1.594,1.169,1.594s1.17-.718,1.17-1.612C224.634,29.589,224.174,28.908,223.472,28.908Zm7.543,3.841h-1v-2.57c0-.792-.3-1.188-.9-1.188a1.032,1.032,0,0,0-.994,1.1v2.662h-1v-3.2c0-.4-.009-.82-.037-1.28h.875l.047.691h.028a1.608,1.608,0,0,1,1.418-.783c.94,0,1.558.718,1.558,1.888Zm6.694-3.73h-1.095v2.173c0,.553.192.83.579.83a1.961,1.961,0,0,0,.441-.047l.028.755a2.205,2.205,0,0,1-.772.111c-.784,0-1.253-.433-1.253-1.566V29.019h-.653v-.746h.653v-.82l.977-.3v1.114h1.095Zm5.267,3.73h-.994V30.2c0-.8-.3-1.206-.9-1.206a.976.976,0,0,0-1,1.059v2.7h-.994v-6.53h.994v2.689h.02a1.509,1.509,0,0,1,1.346-.728c.947,0,1.527.736,1.527,1.907Zm5.4-2h-2.986a1.285,1.285,0,0,0,1.411,1.326A3.363,3.363,0,0,0,248,31.864l.155.691a3.738,3.738,0,0,1-1.5.276,2.078,2.078,0,0,1-2.229-2.256,2.186,2.186,0,0,1,2.117-2.4,1.88,1.88,0,0,1,1.862,2.128,1.921,1.921,0,0,1-.034.451Zm-.912-.709c0-.691-.348-1.179-.984-1.179a1.18,1.18,0,0,0-1.088,1.179Z" transform="translate(-174.806 -26.219)" fill="#444b54"/>
  </g>
</svg>
